<svg width="391" height="1024" viewBox="0 0 391 1024" fill="none" xmlns="http://www.w3.org/2000/svg">
<g clip-path="url(#clip0_25_76)">
<path d="M243.273 -17.9752C280.167 -17.1351 312.313 6.52936 329.711 38.8373C374.438 121.895 384.131 218.556 386.742 311.65C388.776 384.192 346.536 443.617 314.773 504.056C292.429 546.572 302.268 595.019 322.367 635.556C359.552 710.553 403.696 793.109 386.148 879.494C372.325 941.608 337.896 1007.61 234.273 1005.96C166.527 1006.31 114.31 949.847 94.9607 890.119C67.4095 805.072 64.8144 713.996 53.1794 625.556C45.0009 563.389 23.2863 505.029 9.39819 444.337C-16.2088 332.432 12.8011 215.044 68.5232 117.337C103.626 55.7852 155.489 -9.364 231.679 -17.5065C235.587 -17.924 239.457 -18.0621 243.273 -17.9752Z" fill="black"/>
<g opacity="0.85">
<path d="M295.5 0L225.5 0.5H175.5L166 6.00001L158 11L151 16.5L143 23L135.5 29.5L128 36.5L114 51.5L101 68L89 85L76.5 104.5L64.5 125L53.5 146L48.5 156L43.5 167L174.5 212L218 216.5L240 218.5L251 220L262 219.5L281.5 215.5L301 210.5L322 203.5L332.5 200L342.5 195.5L351.5 192L360 187.5L367.5 182.5L372 179.5L374.5 176L372 163.5L369.5 151L367 139.5L364 128L361 116.5L357 104.5L353 92.5L348.5 81L344.5 70.5L339.5 59L334 48L328.5 37.5L322 26.5L314 16.5L304.5 7.5L300 3.5L295.5 0Z" fill="#FFCCBC"/>
<path d="M26.1172 211C20.1963 228.307 13.1172 256 13.1172 256L8.00003 278.5L4.50003 301L3.00003 314L1.50003 328L0.500031 354.5L31 395.5L52.5 414.5L73 433L125.5 455.5L176 460L219.5 458.5L256.5 455.5L292.5 450.5L322 446L349.5 438L358 423L366 406.5L379 373.5L385.5 337.5L386.5 320V301.5L384.5 270.25L382.5 239L381 223L379.5 207.5L377 192.5L374.5 176.5L363 186L348 193.5L333 200.5L318.5 205.5L284 215.5L268 219L250 220.5L241.5 219L213 216L176 212.5L142.5 201.5L109.5 190L43.6172 167C43.6172 167 32.1029 193.503 26.1172 211Z" fill="#B4E7AC"/>
<path d="M176.117 460.5L125.617 455.5L73.6172 433.5L30.6172 395.5L0.500031 355L2.00003 394.5L7.50003 433.5L20 484L34 533.5L44.5 576L53 620L58 660L62.5 700.5L65.5 732L69.5 767L92 740L104 726.5L116.5 714L130 703L144 694L159.5 687L176.117 682.5V460.5Z" fill="#90CAF9"/>
<path d="M352.117 698.5L327.5 693L303 689L273 685.5L238.5 682.5L214 681.5H196L176 683L159 687L143 695L131.5 702.5L122.5 708.5L114.5 716L105 725.5L96 736L69.5 767.5L76.5 813.5L85 853.5L93.5 884.5L98.5 900L103.5 912L107.5 919.5L116 933.5L124 945.5L133.5 957L143.5 967.5L155.5 977.5L168.5 987L183.5 995L201.5 1001.5L217.5 1004.5L233 1005.5L256 1004.5L272.5 1003L288.5 999L303.5 993.5L319 986L331 977.5L342.5 967L353.5 955L363 940L371.5 924.5L377 911L381.117 898L385 882.5L388 866.5L389.617 851.5V834.5L388 809L383.5 783.5L377 760.5L369.5 739L361.5 718.5L352.117 698.5Z" fill="#B39DDB"/>
</g>
</g>
<defs>
<clipPath id="clip0_25_76">
<rect width="390.117" height="1024" fill="white" transform="matrix(-1 0 0 1 390.117 0)"/>
</clipPath>
</defs>
</svg>
