<svg width="391" height="1024" viewBox="0 0 391 1024" fill="none" xmlns="http://www.w3.org/2000/svg">
<path d="M243.276 0.0247979C280.169 0.864868 312.315 24.5294 329.713 56.8373C374.44 139.895 384.134 236.556 386.744 329.65C388.779 402.192 346.539 461.617 314.776 522.056C292.432 564.572 302.27 613.019 322.369 653.556C359.555 728.553 403.698 811.109 386.151 897.494C372.327 959.608 337.898 1025.61 234.276 1023.96C166.529 1024.31 114.312 967.847 94.9631 908.119C67.412 823.072 64.8168 731.996 53.1819 643.556C45.0033 581.389 23.2887 523.029 9.4006 462.337C-16.2064 350.432 12.8035 233.044 68.5256 135.337C103.629 73.7852 155.491 8.636 231.682 0.493548C235.589 0.0759586 239.459 -0.0621059 243.276 0.0247979Z" fill="black"/>
</svg>
