<svg width="391" height="1024" viewBox="0 0 391 1024" fill="none" xmlns="http://www.w3.org/2000/svg">
<g clip-path="url(#clip0_26_88)">
<path d="M146.844 -17.9752C109.95 -17.1351 77.8046 6.52936 60.4065 38.8373C15.6791 121.895 5.98606 218.556 3.37529 311.65C1.34087 384.192 43.5808 443.617 75.344 504.056C97.688 546.572 87.8495 595.019 67.7503 635.556C30.5647 710.553 -13.5787 793.109 3.96904 879.494C17.7927 941.608 52.2217 1007.61 155.844 1005.96C223.591 1006.31 275.807 949.847 295.157 890.119C322.708 805.072 325.303 713.996 336.938 625.556C345.116 563.389 366.831 505.029 380.719 444.337C406.326 332.432 377.316 215.044 321.594 117.337C286.491 55.7852 234.629 -9.364 158.438 -17.5065C154.53 -17.924 150.661 -18.0621 146.844 -17.9752Z" fill="black"/>
<g opacity="0.85">
<path d="M94.6172 0L164.617 0.5H214.617L224.117 6.00001L232.117 11L239.117 16.5L247.117 23L254.617 29.5L262.117 36.5L276.117 51.5L289.117 68L301.117 85L313.617 104.5L325.617 125L336.617 146L341.617 156L346.617 167L215.617 212L172.117 216.5L150.117 218.5L139.117 220L128.117 219.5L108.617 215.5L89.1172 210.5L68.1172 203.5L57.6172 200L47.6172 195.5L38.6172 192L30.1172 187.5L22.6172 182.5L18.1172 179.5L15.6172 176L18.1172 163.5L20.6172 151L23.1172 139.5L26.1172 128L29.1172 116.5L33.1172 104.5L37.1172 92.5L41.6172 81L45.6172 70.5L50.6172 59L56.1172 48L61.6172 37.5L68.1172 26.5L76.1172 16.5L85.6172 7.5L90.1172 3.5L94.6172 0Z" fill="#FFCCBC"/>
<path d="M364 211C369.921 228.307 377 256 377 256L382.117 278.5L385.617 301L387.117 314L388.617 328L389.617 354.5L359.117 395.5L337.617 414.5L317.117 433L264.617 455.5L214.117 460L170.617 458.5L133.617 455.5L97.6172 450.5L68.1172 446L40.6172 438L32.1172 423L24.1172 406.5L11.1172 373.5L4.61719 337.5L3.61719 320V301.5L5.61719 270.25L7.61719 239L9.11719 223L10.6172 207.5L13.1172 192.5L15.6172 176.5L27.1172 186L42.1172 193.5L57.1172 200.5L71.6172 205.5L106.117 215.5L122.117 219L140.117 220.5L148.617 219L177.117 216L214.117 212.5L247.617 201.5L280.617 190L346.5 167C346.5 167 358.014 193.503 364 211Z" fill="#B4E7AC"/>
<path d="M214 460.5L264.5 455.5L316.5 433.5L359.5 395.5L389.617 355L388.117 394.5L382.617 433.5L370.117 484L356.117 533.5L345.617 576L337.117 620L332.117 660L327.617 700.5L324.617 732L320.617 767L298.117 740L286.117 726.5L273.617 714L260.117 703L246.117 694L230.617 687L214 682.5V460.5Z" fill="#90CAF9"/>
<path d="M38 698.5L62.6172 693L87.1172 689L117.117 685.5L151.617 682.5L176.117 681.5H194.117L214.117 683L231.117 687L247.117 695L258.617 702.5L267.617 708.5L275.617 716L285.117 725.5L294.117 736L320.617 767.5L313.617 813.5L305.117 853.5L296.617 884.5L291.617 900L286.617 912L282.617 919.5L274.117 933.5L266.117 945.5L256.617 957L246.617 967.5L234.617 977.5L221.617 987L206.617 995L188.617 1001.5L172.617 1004.5L157.117 1005.5L134.117 1004.5L117.617 1003L101.617 999L86.6172 993.5L71.1172 986L59.1172 977.5L47.6172 967L36.6172 955L27.1172 940L18.6172 924.5L13.1172 911L9 898L5.11719 882.5L2.11719 866.5L0.5 851.5V834.5L2.11719 809L6.61719 783.5L13.1172 760.5L20.6172 739L28.6172 718.5L38 698.5Z" fill="#B39DDB"/>
</g>
</g>
<defs>
<clipPath id="clip0_26_88">
<rect width="390.117" height="1024" fill="white"/>
</clipPath>
</defs>
</svg>
