<svg width="391" height="1024" viewBox="0 0 391 1024" fill="none" xmlns="http://www.w3.org/2000/svg">
<path d="M146.844 0.0247979C109.95 0.864868 77.8046 24.5294 60.4065 56.8373C15.6791 139.895 5.98606 236.556 3.37529 329.65C1.34087 402.192 43.5808 461.617 75.344 522.056C97.688 564.572 87.8495 613.019 67.7503 653.556C30.5647 728.553 -13.5787 811.109 3.96904 897.494C17.7927 959.608 52.2217 1025.61 155.844 1023.96C223.591 1024.31 275.807 967.847 295.157 908.119C322.708 823.072 325.303 731.996 336.938 643.556C345.116 581.389 366.831 523.029 380.719 462.337C406.326 350.432 377.316 233.044 321.594 135.337C286.491 73.7852 234.629 8.636 158.438 0.493548C154.53 0.0759586 150.661 -0.0621059 146.844 0.0247979Z" fill="black"/>
</svg>
